<?xml version='1.0' encoding='utf-8'?>
<svg xmlns="http://www.w3.org/2000/svg" width="2760" height="1504" viewBox="0 0 2760 1504" version="1.1"><defs><marker id="arrow-tip" markerWidth="10" markerHeight="7" refX="9" refY="3.5" orient="auto" markerUnits="strokeWidth"><polygon points="0 0, 10 3.5, 0 7" fill="#000000" /></marker><marker id="arrow-tail" markerWidth="10" markerHeight="7" refX="1" refY="3.5" orient="auto" markerUnits="strokeWidth"><polygon points="10 0, 0 3.5, 10 7" fill="#000000" /></marker></defs><rect x="0" y="0" width="2760" height="1504" fill="#ffffff" /><line x1="288" y1="182.5" x2="1276.5" y2="182.5" fill="none" stroke="#303030" stroke-width="6" stroke-linecap="round" /><line x1="552" y1="1274" x2="651" y2="1274" fill="none" stroke="#303030" stroke-width="2" stroke-linecap="round" marker-end="url(#arrow-tip)" /><line x1="696" y1="1421" x2="1955" y2="1421" fill="none" stroke="#303030" stroke-width="2" stroke-linecap="round" marker-end="url(#arrow-tip)" /><line x1="694" y1="1488" x2="2257" y2="1488" fill="none" stroke="#303030" stroke-width="2" stroke-linecap="round" /><line x1="696" y1="1377.5" x2="967" y2="1377.5" fill="none" stroke="#303030" stroke-width="2" stroke-linecap="round" marker-end="url(#arrow-tip)" /><line x1="1250" y1="695.5" x2="1795" y2="695.5" fill="none" stroke="#303030" stroke-width="2" stroke-linecap="round" /><line x1="856" y1="1139" x2="856" y2="1273" fill="none" stroke="#303030" stroke-width="2" stroke-linecap="round" /><line x1="907" y1="1349" x2="1310" y2="1349" fill="none" stroke="#303030" stroke-width="2" stroke-linecap="round" /><line x1="1250" y1="503" x2="1618" y2="503" fill="none" stroke="#303030" stroke-width="2" stroke-linecap="round" /><line x1="882" y1="1119" x2="882" y2="1272" fill="none" stroke="#303030" stroke-width="2" stroke-linecap="round" /><line x1="1113" y1="1390" x2="2261" y2="1390" fill="none" stroke="#303030" stroke-width="2" stroke-linecap="round" /><line x1="661" y1="853" x2="1242" y2="853" fill="none" stroke="#303030" stroke-width="2" stroke-linecap="round" /><line x1="427" y1="891" x2="896" y2="891" fill="none" stroke="#303030" stroke-width="2" stroke-linecap="round" /><line x1="1730" y1="1198" x2="2183" y2="1198" fill="none" stroke="#303030" stroke-width="2" stroke-linecap="round" /><line x1="1175" y1="792" x2="1621" y2="792" fill="none" stroke="#303030" stroke-width="2" stroke-linecap="round" /><line x1="1735" y1="888" x2="2174" y2="888" fill="none" stroke="#303030" stroke-width="2" stroke-linecap="round" /><line x1="937" y1="968" x2="1354" y2="968" fill="none" stroke="#303030" stroke-width="2" stroke-linecap="round" /><line x1="898" y1="1106" x2="1308" y2="1106" fill="none" stroke="#303030" stroke-width="2" stroke-linecap="round" /><line x1="2256" y1="839" x2="2256" y2="1247" fill="none" stroke="#303030" stroke-width="2" stroke-linecap="round" /><line x1="1763" y1="989" x2="2142" y2="989" fill="none" stroke="#303030" stroke-width="2" stroke-linecap="round" /><line x1="1189" y1="822.25" x2="1540" y2="822.25" fill="none" stroke="#303030" stroke-width="2" stroke-linecap="round" /><line x1="1819" y1="355" x2="2169" y2="355" fill="none" stroke="#303030" stroke-width="2" stroke-linecap="round" /><line x1="1739" y1="263" x2="1739" y2="611" fill="none" stroke="#303030" stroke-width="2" stroke-linecap="round" /><line x1="1620" y1="820" x2="1929" y2="820" fill="none" stroke="#303030" stroke-width="2" stroke-linecap="round" /><line x1="1647" y1="516" x2="1647" y2="800" fill="none" stroke="#303030" stroke-width="2" stroke-linecap="round" /><line x1="2209" y1="917" x2="2209" y2="1172" fill="none" stroke="#303030" stroke-width="2" stroke-linecap="round" /><line x1="1430" y1="810" x2="1430" y2="1061" fill="none" stroke="#303030" stroke-width="2" stroke-linecap="round" /><line x1="1514" y1="421" x2="1763" y2="421" fill="none" stroke="#303030" stroke-width="2" stroke-linecap="round" /><line x1="92" y1="1091" x2="92" y2="1338" fill="none" stroke="#303030" stroke-width="2" stroke-linecap="round" /></svg>