<?xml version='1.0' encoding='utf-8'?>
<svg xmlns="http://www.w3.org/2000/svg" width="2760" height="1504" viewBox="0 0 2760 1504" version="1.1"><defs><marker id="arrow-tip" markerWidth="10" markerHeight="7" refX="9" refY="3.5" orient="auto" markerUnits="strokeWidth"><polygon points="0 0, 10 3.5, 0 7" fill="#000000" /></marker><marker id="arrow-tail" markerWidth="10" markerHeight="7" refX="1" refY="3.5" orient="auto" markerUnits="strokeWidth"><polygon points="10 0, 0 3.5, 10 7" fill="#000000" /></marker></defs><rect x="0" y="0" width="2760" height="1504" fill="#ffffff" /><rect x="2751" y="470" width="9" height="263" fill="none" stroke="#51514c" stroke-width="2" /><rect x="467" y="53" width="339" height="64" fill="none" stroke="#eaedf2" stroke-width="2" /><rect x="2566" y="380" width="122" height="203" fill="#fdfdfd" stroke="#bc956a" stroke-width="3.66" /><rect x="2566" y="1171" width="194" height="164" fill="none" stroke="#1a1a13" stroke-width="4.92" rx="19.68" ry="19.68" /><rect x="325" y="354" width="289" height="159" fill="none" stroke="#95b0cc" stroke-width="4.77" /><rect x="414" y="150.4" width="414" height="150.4" fill="none" stroke="#484a4f" stroke-width="4.51" /><rect x="1196" y="228" width="227" height="284" fill="#edf1f9" stroke="#d7d8d1" stroke-width="6.81" /><rect x="2305" y="892" width="414" height="175" fill="none" stroke="#b8a44a" stroke-width="5.25" /><rect x="2309" y="19" width="335" height="263" fill="none" stroke="#f1d9be" stroke-width="7.89" /><rect x="276" y="845" width="496" height="214" fill="none" stroke="#7e8b80" stroke-width="6.42" /><rect x="2306" y="904" width="390" height="279" fill="none" stroke="#bfa941" stroke-width="8.37" rx="33.48" ry="33.48" /><rect x="617" y="259" width="560" height="265" fill="none" stroke="#82a2c4" stroke-width="7.95" /><rect x="1957" y="564" width="763" height="250" fill="none" stroke="#eacfaf" stroke-width="7.5" /><rect x="593" y="731" width="746" height="343" fill="none" stroke="#1f221f" stroke-width="10.29" /><rect x="1145" y="731" width="746" height="343" fill="none" stroke="#171513" stroke-width="10.29" /><rect x="1973" y="279" width="746" height="344" fill="none" stroke="#a88f62" stroke-width="10.32" /><rect x="82" y="533" width="1028" height="254" fill="none" stroke="#e9eef9" stroke-width="7.62" /><rect x="1957" y="113" width="803" height="376" fill="none" stroke="#a9ad91" stroke-width="11.28" /><line x1="288" y1="182.5" x2="1276.5" y2="182.5" fill="none" stroke="#303030" stroke-width="6" stroke-linecap="round" /><line x1="552" y1="1274" x2="651" y2="1274" fill="none" stroke="#303030" stroke-width="2" stroke-linecap="round" marker-end="url(#arrow-tip)" /><line x1="696" y1="1421" x2="1955" y2="1421" fill="none" stroke="#303030" stroke-width="2" stroke-linecap="round" marker-end="url(#arrow-tip)" /><line x1="694" y1="1488" x2="2257" y2="1488" fill="none" stroke="#303030" stroke-width="2" stroke-linecap="round" /><line x1="696" y1="1377.5" x2="967" y2="1377.5" fill="none" stroke="#303030" stroke-width="2" stroke-linecap="round" marker-end="url(#arrow-tip)" /><line x1="1250" y1="695.5" x2="1795" y2="695.5" fill="none" stroke="#303030" stroke-width="2" stroke-linecap="round" /><line x1="856" y1="1139" x2="856" y2="1273" fill="none" stroke="#303030" stroke-width="2" stroke-linecap="round" /><line x1="907" y1="1349" x2="1310" y2="1349" fill="none" stroke="#303030" stroke-width="2" stroke-linecap="round" /><line x1="1250" y1="503" x2="1618" y2="503" fill="none" stroke="#303030" stroke-width="2" stroke-linecap="round" /><line x1="882" y1="1119" x2="882" y2="1272" fill="none" stroke="#303030" stroke-width="2" stroke-linecap="round" /><line x1="1113" y1="1390" x2="2261" y2="1390" fill="none" stroke="#303030" stroke-width="2" stroke-linecap="round" /><line x1="661" y1="853" x2="1242" y2="853" fill="none" stroke="#303030" stroke-width="2" stroke-linecap="round" /><line x1="427" y1="891" x2="896" y2="891" fill="none" stroke="#303030" stroke-width="2" stroke-linecap="round" /><line x1="1730" y1="1198" x2="2183" y2="1198" fill="none" stroke="#303030" stroke-width="2" stroke-linecap="round" /><line x1="1175" y1="792" x2="1621" y2="792" fill="none" stroke="#303030" stroke-width="2" stroke-linecap="round" /><line x1="1735" y1="888" x2="2174" y2="888" fill="none" stroke="#303030" stroke-width="2" stroke-linecap="round" /><line x1="937" y1="968" x2="1354" y2="968" fill="none" stroke="#303030" stroke-width="2" stroke-linecap="round" /><line x1="898" y1="1106" x2="1308" y2="1106" fill="none" stroke="#303030" stroke-width="2" stroke-linecap="round" /><line x1="2256" y1="839" x2="2256" y2="1247" fill="none" stroke="#303030" stroke-width="2" stroke-linecap="round" /><line x1="1763" y1="989" x2="2142" y2="989" fill="none" stroke="#303030" stroke-width="2" stroke-linecap="round" /><line x1="1189" y1="822.25" x2="1540" y2="822.25" fill="none" stroke="#303030" stroke-width="2" stroke-linecap="round" /><line x1="1819" y1="355" x2="2169" y2="355" fill="none" stroke="#303030" stroke-width="2" stroke-linecap="round" /><line x1="1739" y1="263" x2="1739" y2="611" fill="none" stroke="#303030" stroke-width="2" stroke-linecap="round" /><line x1="1620" y1="820" x2="1929" y2="820" fill="none" stroke="#303030" stroke-width="2" stroke-linecap="round" /><line x1="1647" y1="516" x2="1647" y2="800" fill="none" stroke="#303030" stroke-width="2" stroke-linecap="round" /><line x1="2209" y1="917" x2="2209" y2="1172" fill="none" stroke="#303030" stroke-width="2" stroke-linecap="round" /><line x1="1430" y1="810" x2="1430" y2="1061" fill="none" stroke="#303030" stroke-width="2" stroke-linecap="round" /><line x1="1514" y1="421" x2="1763" y2="421" fill="none" stroke="#303030" stroke-width="2" stroke-linecap="round" /><line x1="92" y1="1091" x2="92" y2="1338" fill="none" stroke="#303030" stroke-width="2" stroke-linecap="round" /><polyline points="2688,481.5 2706,481.5 2706,452 2755.5,452 2755.5,470" fill="none" stroke="#51514c" stroke-width="3.66" stroke-linecap="round" stroke-linejoin="round" marker-end="url(#arrow-tip)" /><polyline points="621,300.8 621,321.86 595.94,321.86 595.94,391.5 617,391.5" fill="none" stroke="#484a4f" stroke-width="7.95" stroke-linecap="round" stroke-linejoin="round" marker-end="url(#arrow-tip)" /><polyline points="2358.5,489 2358.5,608.64 2346,608.64 2346,675.64 2346,623" fill="none" stroke="#a88f62" stroke-width="11.28" stroke-linecap="round" stroke-linejoin="round" marker-end="url(#arrow-tip)" /><polyline points="621,300.8 621,321.86 635.06,321.86 635.06,433.5 614,433.5" fill="none" stroke="#484a4f" stroke-width="4.77" stroke-linecap="round" stroke-linejoin="round" marker-end="url(#arrow-tip)" /><polyline points="596,787 596,822.56 557.44,822.56 557.44,902.5 593,902.5" fill="none" stroke="#1f221f" stroke-width="10.29" stroke-linecap="round" stroke-linejoin="round" marker-end="url(#arrow-tip)" /><polyline points="2501,1183 2501,1222.06 2526.94,1222.06 2526.94,1253 2566,1253" fill="none" stroke="#1a1a13" stroke-width="8.37" stroke-linecap="round" stroke-linejoin="round" marker-end="url(#arrow-tip)" /><polyline points="1110,660 1127.5,660 1127.5,902.5 1109.44,902.5 1145,902.5" fill="none" stroke="#171513" stroke-width="10.29" stroke-linecap="round" stroke-linejoin="round" marker-end="url(#arrow-tip)" /><polyline points="2338.5,814 2338.5,849 2270,849 2270,979.5 2305,979.5" fill="none" stroke="#b8a44a" stroke-width="7.5" stroke-linecap="round" stroke-linejoin="round" marker-end="url(#arrow-tip)" /><polyline points="2760,301 2812.64,301 2812.64,327.36 2627,327.36 2627,380" fill="none" stroke="#bc956a" stroke-width="11.28" stroke-linecap="round" stroke-linejoin="round" marker-end="url(#arrow-tip)" /><polyline points="1309.5,512 1309.5,543.78 1141.78,543.78 1141.78,660 1110,660" fill="none" stroke="#d7d8d1" stroke-width="7.62" stroke-linecap="round" stroke-linejoin="round" marker-end="url(#arrow-tip)" /><polyline points="1423,370 1690,370 1690,301 1925.22,301 1957,301" fill="none" stroke="#a9ad91" stroke-width="11.28" stroke-linecap="round" stroke-linejoin="round" marker-end="url(#arrow-tip)" /><polyline points="1309.5,228 1309.5,196.22 837.78,196.22 837.78,85 806,85" fill="none" stroke="#d7d8d1" stroke-width="6.81" stroke-linecap="round" stroke-linejoin="round" marker-end="url(#arrow-tip)" /><polyline points="2309,150.5 1309.5,150.5 1309.5,191.18 1309.5,228" fill="none" stroke="#d7d8d1" stroke-width="7.89" stroke-linecap="round" stroke-linejoin="round" marker-end="url(#arrow-tip)" /><polyline points="1309.5,512 1309.5,543.78 1925.22,543.78 1925.22,689 1957,689" fill="none" stroke="#eacfaf" stroke-width="7.5" stroke-linecap="round" stroke-linejoin="round" marker-end="url(#arrow-tip)" /><text x="2753" y="627.8" fill="#000000" font-size="184.1" font-family="sans-serif">LTM Handler(claim-aware search,ACL, context bundle)</text><text x="496.12" y="89.61" fill="#000000" font-size="32.26" font-family="sans-serif">1. PERCEIVE (인지 단계)</text><text x="2578" y="496.12" fill="#000000" font-size="102.31" font-family="sans-serif">QueryPlanner(referent cache &amp; role alias)</text><text x="2583.52" y="1264.81" fill="#000000" font-size="82.66" font-family="sans-serif">Canonical State DB (SQLite)(active claims, open loops,interaction policy, relation state,encrypted boundary payload)</text><text x="350.12" y="444.95" fill="#000000" font-size="80.14" font-family="sans-serif">Sensory System(Delta ingest, durable cursor,chunking &amp; embedding)</text><text x="449.12" y="236.43" fill="#000000" font-size="75.8" font-family="sans-serif">Boundary Redaction(Clause-level, target-aware)</text><text x="1216.16" y="390.45" fill="#000000" font-size="143.14" font-family="sans-serif">Bot Orchestrator(Main Loop Controller)</text><text x="2340.12" y="992.1" fill="#000000" font-size="88.2" font-family="sans-serif">Generation Stack(prompt reconstruction,model eval gate, fast/slowrouting, structured output)</text><text x="2337.8" y="169.44" fill="#000000" font-size="132.55" font-family="sans-serif">User Input</text><text x="317.68" y="967.41" fill="#000000" font-size="107.86" font-family="sans-serif">Boundary Enforcement(memory-safe text,user-visible repair)</text><text x="2339.2" y="1063.59" fill="#000000" font-size="140.62" font-family="sans-serif">Memory Graph DB(Entity-Claim-Note-Episodesnapshot + delta, publicboundary projection)</text><text x="663.8" y="410.58" fill="#000000" font-size="133.56" font-family="sans-serif">Identity &amp; Fast Path(nickname mapping,FastPathMemoryWriter)</text><text x="2020.04" y="707" fill="#000000" font-size="126" font-family="sans-serif">3. THINK (사고 및 생성 단계)</text><text x="1206.68" y="927.2" fill="#000000" font-size="172.87" font-family="sans-serif">Reflection Handler(claims/notes extraction,background consolidation)</text><text x="654.68" y="927.2" fill="#000000" font-size="172.87" font-family="sans-serif">SocialManager(event-based relationupdate, fulfillment-awarereliability)</text><text x="2034.68" y="475.77" fill="#000000" font-size="173.38" font-family="sans-serif">Working Memory (STM)(priority queue &amp; semantic boost)</text><text x="166.24" y="678.29" fill="#000000" font-size="128.02" font-family="sans-serif">4. ACT (행동 및 반영 단계)</text><text x="2023.24" y="328.07" fill="#000000" font-size="189.5" font-family="sans-serif">2. RETRIEVE (기억 인출 단계)</text></svg>