<?xml version='1.0' encoding='utf-8'?>
<svg xmlns="http://www.w3.org/2000/svg" width="2760" height="1504" viewBox="0 0 2760 1504" version="1.1"><defs><marker id="arrow-tip" markerWidth="10" markerHeight="7" refX="9" refY="3.5" orient="auto" markerUnits="strokeWidth"><polygon points="0 0, 10 3.5, 0 7" fill="#000000" /></marker><marker id="arrow-tail" markerWidth="10" markerHeight="7" refX="1" refY="3.5" orient="auto" markerUnits="strokeWidth"><polygon points="10 0, 0 3.5, 10 7" fill="#000000" /></marker></defs><rect x="0" y="0" width="2760" height="1504" fill="#ffffff" /><rect x="1806.5" y="555.5" width="310" height="126" fill="none" stroke="#fff4df" stroke-width="1" rx="15.12" ry="15.12" /><rect x="898.5" y="292" width="121" height="377" fill="#d1e1f2" stroke="#cfdff1" stroke-width="1" /><rect x="286" y="1349" width="401" height="133.5" fill="none" stroke="#929693" stroke-width="1" /><rect x="590.5" y="528.5" width="426" height="141" fill="none" stroke="#cfdef0" stroke-width="1" /><rect x="89.5" y="528.5" width="501" height="141" fill="none" stroke="#c9dff2" stroke-width="1" /><rect x="590.5" y="528.5" width="426" height="169" fill="none" stroke="#cfdff0" stroke-width="1" /><rect x="590.5" y="528.5" width="555" height="141" fill="none" stroke="#d7e5f4" stroke-width="1" rx="16.92" ry="16.92" /><rect x="76" y="165.5" width="1165" height="534" fill="none" stroke="#c6dbf3" stroke-width="1" /><line x1="48.5" y1="211" x2="48.5" y2="1029" fill="none" stroke="#737473" stroke-width="1" stroke-linecap="round" /><line x1="2759.5" y1="850" x2="2759.5" y2="1504" fill="none" stroke="#d9d9ce" stroke-width="1" stroke-linecap="round" /><line x1="909" y1="1482.5" x2="1416" y2="1482.5" fill="none" stroke="#9a9f9b" stroke-width="1" stroke-linecap="round" /><line x1="2274" y1="1503.5" x2="2760" y2="1503.5" fill="none" stroke="#ebeeb9" stroke-width="1" stroke-linecap="round" /><line x1="937" y1="968.5" x2="1336" y2="968.5" fill="none" stroke="#e7f0e7" stroke-width="1" stroke-linecap="round" /><line x1="503" y1="737.5" x2="872" y2="737.5" fill="none" stroke="#949596" stroke-width="1" stroke-linecap="round" /></svg>