<?xml version='1.0' encoding='utf-8'?>
<svg xmlns="http://www.w3.org/2000/svg" width="2760" height="1504" viewBox="0 0 2760 1504" version="1.1"><defs><marker id="arrow-tip" markerWidth="10" markerHeight="7" refX="9" refY="3.5" orient="auto" markerUnits="strokeWidth"><polygon points="0 0, 10 3.5, 0 7" fill="#000000" /></marker><marker id="arrow-tail" markerWidth="10" markerHeight="7" refX="1" refY="3.5" orient="auto" markerUnits="strokeWidth"><polygon points="10 0, 0 3.5, 10 7" fill="#000000" /></marker></defs><rect x="0" y="0" width="2760" height="1504" fill="#ffffff" /><rect x="707" y="178" width="140" height="39" fill="none" stroke="#ebeff8" stroke-width="2" /><rect x="467" y="53" width="339" height="64" fill="none" stroke="#eaedf2" stroke-width="2" /><rect x="1196" y="228" width="227" height="284" fill="#edf1f9" stroke="#d7d8d1" stroke-width="6.81" /><rect x="300" y="353" width="468" height="176" fill="none" stroke="#7492b2" stroke-width="5.28" /><rect x="2309" y="19" width="335" height="263" fill="none" stroke="#f1d9be" stroke-width="7.89" /><rect x="2282" y="312" width="405" height="278" fill="none" stroke="#c89d72" stroke-width="8.34" /><rect x="82" y="580" width="705" height="164" fill="none" stroke="#556b68" stroke-width="4.92" /><rect x="2306" y="893" width="412" height="290" fill="none" stroke="#b19632" stroke-width="8.7" rx="34.8" ry="34.8" /><rect x="82" y="488" width="549" height="225" fill="none" stroke="#c9dbee" stroke-width="6.75" /><rect x="2279" y="159" width="441" height="284" fill="none" stroke="#e5c7ab" stroke-width="8.52" /><rect x="1712" y="821" width="497" height="389" fill="none" stroke="#dabfe2" stroke-width="11.67" rx="46.68" ry="46.68" /><rect x="593" y="259" width="746" height="289" fill="none" stroke="#628ab3" stroke-width="8.67" /><rect x="1697" y="164" width="746" height="309" fill="none" stroke="#f9dcc0" stroke-width="9.27" /><rect x="593" y="580" width="746" height="344" fill="none" stroke="#30302f" stroke-width="10.32" /><rect x="1145" y="580" width="746" height="344" fill="none" stroke="#020202" stroke-width="10.32" /><rect x="1650" y="533" width="1070" height="282" fill="none" stroke="#f4c9a0" stroke-width="8.46" /><rect x="1731" y="21" width="1029" height="348" fill="none" stroke="#d6ccb2" stroke-width="10.44" /><rect x="1650" y="383" width="1070" height="432" fill="none" stroke="#f4d6b9" stroke-width="12.96" /><polyline points="2185,815 2185,875.48 2185,815" fill="none" stroke="#f4c9a0" stroke-width="12.96" stroke-linecap="round" stroke-linejoin="round" marker-end="url(#arrow-tip)" /><line x1="288" y1="182.5" x2="1276.5" y2="182.5" fill="none" stroke="#303030" stroke-width="6" stroke-linecap="round" /><line x1="552" y1="1274" x2="651" y2="1274" fill="none" stroke="#303030" stroke-width="2" stroke-linecap="round" marker-end="url(#arrow-tip)" /><line x1="696" y1="1421" x2="1955" y2="1421" fill="none" stroke="#303030" stroke-width="2" stroke-linecap="round" marker-end="url(#arrow-tip)" /><line x1="694" y1="1488" x2="2257" y2="1488" fill="none" stroke="#303030" stroke-width="2" stroke-linecap="round" /><line x1="696" y1="1377.5" x2="967" y2="1377.5" fill="none" stroke="#303030" stroke-width="2" stroke-linecap="round" marker-end="url(#arrow-tip)" /><line x1="1250" y1="695.5" x2="1795" y2="695.5" fill="none" stroke="#303030" stroke-width="2" stroke-linecap="round" /><line x1="856" y1="1139" x2="856" y2="1273" fill="none" stroke="#303030" stroke-width="2" stroke-linecap="round" /><line x1="907" y1="1349" x2="1310" y2="1349" fill="none" stroke="#303030" stroke-width="2" stroke-linecap="round" /><line x1="1250" y1="503" x2="1618" y2="503" fill="none" stroke="#303030" stroke-width="2" stroke-linecap="round" /><line x1="882" y1="1119" x2="882" y2="1272" fill="none" stroke="#303030" stroke-width="2" stroke-linecap="round" /><line x1="1113" y1="1390" x2="2261" y2="1390" fill="none" stroke="#303030" stroke-width="2" stroke-linecap="round" /><line x1="661" y1="853" x2="1242" y2="853" fill="none" stroke="#303030" stroke-width="2" stroke-linecap="round" /><line x1="427" y1="891" x2="896" y2="891" fill="none" stroke="#303030" stroke-width="2" stroke-linecap="round" /><line x1="1730" y1="1198" x2="2183" y2="1198" fill="none" stroke="#303030" stroke-width="2" stroke-linecap="round" /><line x1="1175" y1="792" x2="1621" y2="792" fill="none" stroke="#303030" stroke-width="2" stroke-linecap="round" /><line x1="1735" y1="888" x2="2174" y2="888" fill="none" stroke="#303030" stroke-width="2" stroke-linecap="round" /><line x1="937" y1="968" x2="1354" y2="968" fill="none" stroke="#303030" stroke-width="2" stroke-linecap="round" /><line x1="898" y1="1106" x2="1308" y2="1106" fill="none" stroke="#303030" stroke-width="2" stroke-linecap="round" /><line x1="2256" y1="839" x2="2256" y2="1247" fill="none" stroke="#303030" stroke-width="2" stroke-linecap="round" /><line x1="1763" y1="989" x2="2142" y2="989" fill="none" stroke="#303030" stroke-width="2" stroke-linecap="round" /><line x1="1189" y1="822.25" x2="1540" y2="822.25" fill="none" stroke="#303030" stroke-width="2" stroke-linecap="round" /><line x1="1819" y1="355" x2="2169" y2="355" fill="none" stroke="#303030" stroke-width="2" stroke-linecap="round" /><line x1="1739" y1="263" x2="1739" y2="611" fill="none" stroke="#303030" stroke-width="2" stroke-linecap="round" /><line x1="1620" y1="820" x2="1929" y2="820" fill="none" stroke="#303030" stroke-width="2" stroke-linecap="round" /><line x1="1647" y1="516" x2="1647" y2="800" fill="none" stroke="#303030" stroke-width="2" stroke-linecap="round" /><line x1="2209" y1="917" x2="2209" y2="1172" fill="none" stroke="#303030" stroke-width="2" stroke-linecap="round" /><line x1="1430" y1="810" x2="1430" y2="1061" fill="none" stroke="#303030" stroke-width="2" stroke-linecap="round" /><line x1="1514" y1="421" x2="1763" y2="421" fill="none" stroke="#303030" stroke-width="2" stroke-linecap="round" /><line x1="92" y1="1091" x2="92" y2="1338" fill="none" stroke="#303030" stroke-width="2" stroke-linecap="round" /><polyline points="82,600.5 50.5,600.5 50.5,662 82,662" fill="none" stroke="#556b68" stroke-width="6.75" stroke-linecap="round" stroke-linejoin="round" marker-end="url(#arrow-tip)" /><polyline points="2209,1015.5 2257.5,1015.5 2257.5,1038 2251.54,1038 2306,1038" fill="none" stroke="#b19632" stroke-width="11.67" stroke-linecap="round" stroke-linejoin="round" marker-end="url(#arrow-tip)" /><polyline points="2499.5,443 2499.5,377.5 2484.5,377.5 2484.5,272.24 2484.5,312" fill="none" stroke="#c89d72" stroke-width="8.52" stroke-linecap="round" stroke-linejoin="round" marker-end="url(#arrow-tip)" /><polyline points="777,217 777,235 786,235 786,441 768,441" fill="none" stroke="#7492b2" stroke-width="5.28" stroke-linecap="round" stroke-linejoin="round" marker-end="url(#arrow-tip)" /><polyline points="806,85 824,85 824,160 777,160 777,178" fill="none" stroke="#eaedf2" stroke-width="2" stroke-linecap="round" stroke-linejoin="round" marker-end="url(#arrow-tip)" /><polyline points="2245.5,369 2245.5,417.72 2230.28,417.72 2230.28,301 2279,301" fill="none" stroke="#d6ccb2" stroke-width="10.44" stroke-linecap="round" stroke-linejoin="round" marker-end="url(#arrow-tip)" /><polyline points="1731,195 1665.28,195 1665.28,318.5 1648.28,318.5 1697,318.5" fill="none" stroke="#d6ccb2" stroke-width="10.44" stroke-linecap="round" stroke-linejoin="round" marker-end="url(#arrow-tip)" /><polyline points="631,600.5 612,600.5 612,752 561.5,752 593,752" fill="none" stroke="#30302f" stroke-width="10.32" stroke-linecap="round" stroke-linejoin="round" marker-end="url(#arrow-tip)" /><polyline points="1309.5,228 1309.5,196.22 1699.22,196.22 1699.22,195 1731,195" fill="none" stroke="#d6ccb2" stroke-width="10.44" stroke-linecap="round" stroke-linejoin="round" marker-end="url(#arrow-tip)" /><polyline points="1309.5,512 1309.5,543.78 1618.22,543.78 1618.22,599 1650,599" fill="none" stroke="#d7d8d1" stroke-width="12.96" stroke-linecap="round" stroke-linejoin="round" marker-end="url(#arrow-tip)" /><polyline points="1309.5,512 1309.5,543.78 662.78,543.78 662.78,600.5 631,600.5" fill="none" stroke="#d7d8d1" stroke-width="6.81" stroke-linecap="round" stroke-linejoin="round" marker-end="url(#arrow-tip)" /><polyline points="1309.5,228 1309.5,196.22 837.78,196.22 837.78,85 806,85" fill="none" stroke="#d7d8d1" stroke-width="6.81" stroke-linecap="round" stroke-linejoin="round" marker-end="url(#arrow-tip)" /><polyline points="2309,150.5 1309.5,150.5 1309.5,191.18 1309.5,228" fill="none" stroke="#d7d8d1" stroke-width="7.89" stroke-linecap="round" stroke-linejoin="round" marker-end="url(#arrow-tip)" /><polyline points="631,600.5 888,600.5 888,752 1113.5,752 1145,752" fill="none" stroke="#020202" stroke-width="10.32" stroke-linecap="round" stroke-linejoin="round" marker-end="url(#arrow-tip)" /><text x="720.2" y="200.1" fill="#000000" font-size="18.2" font-family="sans-serif">Boundary Redaction(Clause-level, target-aware)</text><text x="496.12" y="89.61" fill="#000000" font-size="32.26" font-family="sans-serif">1. PERCEIVE (인지 단계)</text><text x="1216.16" y="390.45" fill="#000000" font-size="143.14" font-family="sans-serif">Bot Orchestrator(Main Loop Controller)</text><text x="339.44" y="453.67" fill="#000000" font-size="88.7" font-family="sans-serif">Sensory System(Delta ingest, durable cursor,chunking &amp; embedding)</text><text x="2337.8" y="169.44" fill="#000000" font-size="132.55" font-family="sans-serif">User Input</text><text x="2316.4" y="471.02" fill="#000000" font-size="140.11" font-family="sans-serif">LTM Handler(claim-aware search,ACL, context bundle)</text><text x="140.4" y="673.81" fill="#000000" font-size="82.66" font-family="sans-serif">Boundary Enforcement(memory-safe text,user-visible repair)</text><text x="2340.96" y="1058.88" fill="#000000" font-size="146.16" font-family="sans-serif">Canonical State DB (SQLite)(active claims, open loops,interaction policy, relationstate, encrypted boundarypayload)</text><text x="127.92" y="616.7" fill="#000000" font-size="113.4" font-family="sans-serif">4. ACT (행동 및 반영 단계)</text><text x="2316.28" y="321.45" fill="#000000" font-size="143.14" font-family="sans-serif">QueryPlanner(referent cache &amp; role alias)</text><text x="1753.76" y="1043.51" fill="#000000" font-size="196.06" font-family="sans-serif">Memory Graph DB(Entity-Claim-Note-Episodesnapshot + delta, publicboundary projection)</text><text x="654.68" y="424.31" fill="#000000" font-size="145.66" font-family="sans-serif">Identity &amp; Fast Path(nickname mapping,FastPathMemoryWriter)</text><text x="1758.68" y="340.75" fill="#000000" font-size="155.74" font-family="sans-serif">Working Memory (STM)(priority queue &amp; semantic boost)</text><text x="1206.68" y="776.77" fill="#000000" font-size="173.38" font-family="sans-serif">Reflection Handler(claims/notes extraction,background consolidation)</text><text x="654.68" y="776.77" fill="#000000" font-size="173.38" font-family="sans-serif">SocialManager(event-based relationupdate, fulfillment-awarereliability)</text><text x="1737.6" y="694.3" fill="#000000" font-size="142.13" font-family="sans-serif">Generation Stack(prompt reconstruction,model eval gate, fast/slowrouting, structured output)</text><text x="1815.32" y="220.06" fill="#000000" font-size="175.39" font-family="sans-serif">2. RETRIEVE (기억 인출 단계)</text><text x="1737.6" y="630.1" fill="#000000" font-size="217.73" font-family="sans-serif">3. THINK (사고 및 생성 단계)</text></svg>