<?xml version='1.0' encoding='utf-8'?>
<svg xmlns="http://www.w3.org/2000/svg" width="2760" height="1504" viewBox="0 0 2760 1504" version="1.1"><defs><marker id="arrow-tip" markerWidth="10" markerHeight="7" refX="9" refY="3.5" orient="auto" markerUnits="strokeWidth"><polygon points="0 0, 10 3.5, 0 7" fill="#000000" /></marker><marker id="arrow-tail" markerWidth="10" markerHeight="7" refX="1" refY="3.5" orient="auto" markerUnits="strokeWidth"><polygon points="10 0, 0 3.5, 10 7" fill="#000000" /></marker></defs><rect x="0" y="0" width="2760" height="1504" fill="#ffffff" /><rect x="572" y="699" width="256" height="8" fill="#5e83ad" stroke="#95b2d0" stroke-width="2" /><rect x="172" y="156" width="206" height="10" fill="none" stroke="#dededf" stroke-width="2" /><rect x="1022" y="70" width="79" height="48" fill="none" stroke="#c8c8c8" stroke-width="2" /><rect x="707" y="178" width="121" height="39" fill="none" stroke="#e9ecf0" stroke-width="2" /><rect x="374" y="293" width="154" height="39" fill="none" stroke="#c7d4dd" stroke-width="2" rx="4.68" ry="4.68" /><rect x="872" y="259" width="156" height="69" fill="#d1e1f2" stroke="#d0e0f1" stroke-width="2.07" /><rect x="872" y="805" width="256" height="49" fill="none" stroke="#dbddda" stroke-width="2" rx="5.88" ry="5.88" /><rect x="81" y="622" width="197" height="86" fill="none" stroke="#a5b9d2" stroke-width="2.58" /><rect x="116" y="522" width="162" height="106" fill="none" stroke="#7a98ba" stroke-width="3.18" /><rect x="272" y="669" width="256" height="75" fill="none" stroke="#b7cbde" stroke-width="2.25" /><rect x="1122" y="366" width="184" height="112" fill="none" stroke="#e5ecf7" stroke-width="3.36" /><rect x="272" y="546" width="256" height="82" fill="none" stroke="#f8f8f6" stroke-width="2.46" rx="9.84" ry="9.84" /><rect x="81" y="259" width="197" height="119" fill="#d1e1f2" stroke="#bacfe3" stroke-width="3.57" /><rect x="46" y="156" width="382" height="72" fill="none" stroke="#dfe0e1" stroke-width="2.16" /><rect x="1143" y="472" width="235" height="156" fill="none" stroke="#010101" stroke-width="4.68" /><rect x="585" y="472" width="243" height="156" fill="none" stroke="#9cb2cc" stroke-width="4.68" /><rect x="872" y="322" width="256" height="156" fill="none" stroke="#d1e0f1" stroke-width="4.68" /><rect x="872" y="622" width="256" height="156" fill="none" stroke="#8e96a4" stroke-width="4.68" rx="18.72" ry="18.72" /><polyline points="1000,778 1000,783.16 1000,805" fill="none" stroke="#8e96a4" stroke-width="4.68" stroke-linecap="round" stroke-linejoin="round" marker-end="url(#arrow-tip)" /><polyline points="707,197.5 706.5,197.5 706.5,454 706.5,472" fill="none" stroke="#9cb2cc" stroke-width="4.68" stroke-linecap="round" stroke-linejoin="round" marker-end="url(#arrow-tip)" /><polyline points="278,575 275,575 275,587 254,587 272,587" fill="none" stroke="#7a98ba" stroke-width="3.18" stroke-linecap="round" stroke-linejoin="round" marker-end="url(#arrow-tip)" /><polyline points="197,628 197,625 179.5,625 179.5,604 179.5,622" fill="none" stroke="#7a98ba" stroke-width="3.18" stroke-linecap="round" stroke-linejoin="round" marker-end="url(#arrow-tip)" /><polyline points="706.5,628 706.5,663.5 700,663.5 700,677.16 700,699" fill="none" stroke="#95b2d0" stroke-width="4.68" stroke-linecap="round" stroke-linejoin="round" marker-end="url(#arrow-tip)" /><polyline points="237,156 237,161 275,161 275,184 275,166" fill="none" stroke="#dededf" stroke-width="2.16" stroke-linecap="round" stroke-linejoin="round" marker-end="url(#arrow-tip)" /><polyline points="1214,478 1214,475 1260.5,475 1260.5,454 1260.5,472" fill="none" stroke="#010101" stroke-width="4.68" stroke-linecap="round" stroke-linejoin="round" marker-end="url(#arrow-tip)" /><polyline points="950,328 950,325 1000,325 1000,304 1000,322" fill="none" stroke="#d0e0f1" stroke-width="4.68" stroke-linecap="round" stroke-linejoin="round" marker-end="url(#arrow-tip)" /><polyline points="707,197.5 567.5,197.5 567.5,192 446,192 428,192" fill="none" stroke="#dfe0e1" stroke-width="2.16" stroke-linecap="round" stroke-linejoin="round" marker-end="url(#arrow-tip)" /><polyline points="172,161 154,161 154,241 179.5,241 179.5,259" fill="none" stroke="#bacfe3" stroke-width="3.57" stroke-linecap="round" stroke-linejoin="round" marker-end="url(#arrow-tip)" /><polyline points="278,575 275,575 275,706.5 254,706.5 272,706.5" fill="none" stroke="#7a98ba" stroke-width="3.18" stroke-linecap="round" stroke-linejoin="round" marker-end="url(#arrow-tip)" /><polyline points="378,161 376,161 376,312.5 356,312.5 374,312.5" fill="none" stroke="#c7d4dd" stroke-width="2" stroke-linecap="round" stroke-linejoin="round" marker-end="url(#arrow-tip)" /><polyline points="828,197.5 850,197.5 850,293.5 854,293.5 872,293.5" fill="none" stroke="#d0e0f1" stroke-width="2.07" stroke-linecap="round" stroke-linejoin="round" marker-end="url(#arrow-tip)" /><polyline points="1028,293.5 1075,293.5 1075,422 1104,422 1122,422" fill="none" stroke="#d0e0f1" stroke-width="3.36" stroke-linecap="round" stroke-linejoin="round" marker-end="url(#arrow-tip)" /><polyline points="1022,94 925,94 925,197.5 846,197.5 828,197.5" fill="none" stroke="#c8c8c8" stroke-width="2" stroke-linecap="round" stroke-linejoin="round" marker-end="url(#arrow-tip)" /><polyline points="707,197.5 492.5,197.5 492.5,575 296,575 278,575" fill="none" stroke="#7a98ba" stroke-width="3.18" stroke-linecap="round" stroke-linejoin="round" marker-end="url(#arrow-tip)" /><text x="1034" y="97.46" fill="#000000" font-size="24.19" font-family="sans-serif">User Input</text><text x="574" y="709" fill="#000000" font-size="10" font-family="sans-serif">Generation Stack(prompt reconstruction,model eval gate, fast/slowrouting, structured output)</text><text x="174" y="166" fill="#000000" font-size="10" font-family="sans-serif">Boundary Redaction(Clause-level, target-aware)</text><text x="719" y="200.1" fill="#000000" font-size="18.2" font-family="sans-serif">Bot Orchestrator(Main Loop Controller)</text><text x="388.32" y="315.1" fill="#000000" font-size="18.2" font-family="sans-serif">Identity &amp; Fast Path(nickname mapping,FastPathMemoryWriter)</text><text x="886.48" y="298.47" fill="#000000" font-size="34.78" font-family="sans-serif">2. RETRIEVE(기억 인출 단계)</text><text x="894.48" y="833.03" fill="#000000" font-size="24.7" font-family="sans-serif">Canonical State DB(SQLite)</text><text x="98.76" y="671.19" fill="#000000" font-size="43.34" font-family="sans-serif">Boundary Enforcement(memory-safe text,user-visible repair)</text><text x="130.96" y="582.63" fill="#000000" font-size="53.42" font-family="sans-serif">4. ACT(행동 및 반영 단계)</text><text x="294.48" y="711.9" fill="#000000" font-size="37.8" font-family="sans-serif">SocialManager(event-based relationupdate, fulfillment-awarereliability)</text><text x="1138.72" y="430.06" fill="#000000" font-size="56.45" font-family="sans-serif">QueryPlanner(referent cache &amp; role alias)</text><text x="294.48" y="592.9" fill="#000000" font-size="41.33" font-family="sans-serif">Reflection Handler(claims/notes extraction,background consolidation)</text><text x="98.76" y="327.07" fill="#000000" font-size="59.98" font-family="sans-serif">Sensory System(Delta ingest, durable cursor,chunking &amp; embedding)</text><text x="78.56" y="197.18" fill="#000000" font-size="36.29" font-family="sans-serif">1. PERCEIVE(인지 단계)</text><text x="1163.8" y="561.23" fill="#000000" font-size="78.62" font-family="sans-serif">LTM Handler(claim-aware search,ACL, context bundle)</text><text x="606.44" y="561.23" fill="#000000" font-size="78.62" font-family="sans-serif">3. THINK(사고 및 생성 단계)</text><text x="894.48" y="411.23" fill="#000000" font-size="78.62" font-family="sans-serif">Working Memory (STM)(priority queue &amp; semantic boost)</text><text x="894.48" y="711.23" fill="#000000" font-size="78.62" font-family="sans-serif">Memory Graph DB(Entity-Claim-Note-Episode)</text></svg>