<?xml version='1.0' encoding='utf-8'?>
<svg xmlns="http://www.w3.org/2000/svg" width="2760" height="1504" viewBox="0 0 2760 1504" version="1.1"><defs><marker id="arrow-tip" markerWidth="10" markerHeight="7" refX="9" refY="3.5" orient="auto" markerUnits="strokeWidth"><polygon points="0 0, 10 3.5, 0 7" fill="#000000" /></marker><marker id="arrow-tail" markerWidth="10" markerHeight="7" refX="1" refY="3.5" orient="auto" markerUnits="strokeWidth"><polygon points="10 0, 0 3.5, 10 7" fill="#000000" /></marker></defs><rect x="0" y="0" width="2760" height="1504" fill="#ffffff" /><rect x="414" y="225.6" width="414" height="75.2" fill="none" stroke="#53565d" stroke-width="2.26" /><rect x="1224" y="256" width="171" height="240" fill="none" stroke="#d3e2f6" stroke-width="5.13" /><rect x="2337" y="47" width="279" height="207" fill="none" stroke="#c29e9d" stroke-width="6.21" /><rect x="138" y="752" width="414" height="150.4" fill="none" stroke="#e6efe9" stroke-width="4.51" /><rect x="656" y="805" width="482" height="131" fill="none" stroke="#7a877a" stroke-width="3.93" /><rect x="1727" y="820" width="483" height="149" fill="none" stroke="#d2b8d9" stroke-width="4.47" /><rect x="2336" y="944" width="352" height="218" fill="none" stroke="#e9c956" stroke-width="6.54" rx="26.16" ry="26.16" /><rect x="1749" y="984" width="421" height="189" fill="none" stroke="#9d73af" stroke-width="5.67" rx="22.68" ry="22.68" /><rect x="2312" y="342" width="375" height="218" fill="none" stroke="#d8ab85" stroke-width="6.54" /><rect x="2312" y="493" width="408" height="217" fill="none" stroke="#cb9263" stroke-width="6.51" /><rect x="115" y="352" width="471" height="208" fill="none" stroke="#8c95ab" stroke-width="6.24" /><rect x="656" y="342" width="482" height="218" fill="none" stroke="#bfd0d8" stroke-width="6.54" /><rect x="1760" y="342" width="482" height="218" fill="none" stroke="#f9d7b5" stroke-width="6.54" /><rect x="1208" y="718" width="482" height="218" fill="none" stroke="#030303" stroke-width="6.54" /><rect x="82" y="260" width="951" height="183" fill="none" stroke="#668bb4" stroke-width="5.49" /><rect x="82" y="535" width="951" height="246" fill="none" stroke="#eaeef9" stroke-width="7.38" /><rect x="1727" y="535" width="962" height="279" fill="none" stroke="#f6c79d" stroke-width="8.37" /><rect x="1727" y="159" width="962" height="359" fill="none" stroke="#d7b7a4" stroke-width="10.77" /><polyline points="557.5,781 557.5,815.44 586.44,815.44 586.44,827.2 552,827.2" fill="none" stroke="#e6efe9" stroke-width="7.38" stroke-linecap="round" stroke-linejoin="round" marker-end="url(#arrow-tip)" /><polyline points="2499.5,560 2499.5,526.5 2516,526.5 2516,462.48 2516,493" fill="none" stroke="#cb9263" stroke-width="6.54" stroke-linecap="round" stroke-linejoin="round" marker-end="url(#arrow-tip)" /><polyline points="2208,814 2208,853.06 2249.06,853.06 2249.06,894.5 2210,894.5" fill="none" stroke="#f6c79d" stroke-width="8.37" stroke-linecap="round" stroke-linejoin="round" marker-end="url(#arrow-tip)" /><polyline points="557.5,260 557.5,280.4 621,280.4 621,326.42 621,300.8" fill="none" stroke="#53565d" stroke-width="5.49" stroke-linecap="round" stroke-linejoin="round" marker-end="url(#arrow-tip)" /><polyline points="2170,1078.5 2253,1078.5 2253,1053 2309.54,1053 2336,1053" fill="none" stroke="#9d73af" stroke-width="6.54" stroke-linecap="round" stroke-linejoin="round" marker-end="url(#arrow-tip)" /><polyline points="1224,376 1128.5,376 1128.5,351.5 1056.94,351.5 1033,351.5" fill="none" stroke="#668bb4" stroke-width="5.49" stroke-linecap="round" stroke-linejoin="round" marker-end="url(#arrow-tip)" /><polyline points="828,263.2 897,263.2 897,324 897,342" fill="none" stroke="#53565d" stroke-width="6.54" stroke-linecap="round" stroke-linejoin="round" marker-end="url(#arrow-tip)" /><polyline points="414,263.2 350.5,263.2 350.5,334 350.5,352" fill="none" stroke="#53565d" stroke-width="6.24" stroke-linecap="round" stroke-linejoin="round" marker-end="url(#arrow-tip)" /><polyline points="2689,338.5 2738.26,338.5 2738.26,451 2737.26,451 2687,451" fill="none" stroke="#d8ab85" stroke-width="10.77" stroke-linecap="round" stroke-linejoin="round" marker-end="url(#arrow-tip)" /><polyline points="557.5,781 557.5,815.44 621.56,815.44 621.56,870.5 656,870.5" fill="none" stroke="#7a877a" stroke-width="7.38" stroke-linecap="round" stroke-linejoin="round" marker-end="url(#arrow-tip)" /><polyline points="2208,518 2208,568.26 2292.26,568.26 2292.26,451 2242,451" fill="none" stroke="#d7b7a4" stroke-width="10.77" stroke-linecap="round" stroke-linejoin="round" marker-end="url(#arrow-tip)" /><polyline points="1395,376 1561,376 1561,338.5 1703.06,338.5 1727,338.5" fill="none" stroke="#d7b7a4" stroke-width="10.77" stroke-linecap="round" stroke-linejoin="round" marker-end="url(#arrow-tip)" /><polyline points="1033,658 1120.5,658 1120.5,827 1173.56,827 1208,827" fill="none" stroke="#030303" stroke-width="7.38" stroke-linecap="round" stroke-linejoin="round" marker-end="url(#arrow-tip)" /><polyline points="1309.5,496 1309.5,519.94 1056.94,519.94 1056.94,658 1033,658" fill="none" stroke="#d3e2f6" stroke-width="7.38" stroke-linecap="round" stroke-linejoin="round" marker-end="url(#arrow-tip)" /><polyline points="1309.5,496 1309.5,519.94 1703.06,519.94 1703.06,674.5 1727,674.5" fill="none" stroke="#f6c79d" stroke-width="8.37" stroke-linecap="round" stroke-linejoin="round" marker-end="url(#arrow-tip)" /><polyline points="2337,150.5 1309.5,150.5 1309.5,227.02 1309.5,256" fill="none" stroke="#c29e9d" stroke-width="6.21" stroke-linecap="round" stroke-linejoin="round" marker-end="url(#arrow-tip)" /><text x="449.12" y="268.61" fill="#000000" font-size="37.9" font-family="sans-serif">Boundary Redaction(Clause-level, target-aware)</text><text x="1239.68" y="393.28" fill="#000000" font-size="120.96" font-family="sans-serif">Bot Orchestrator(Main Loop Controller)</text><text x="2361.32" y="165.4" fill="#000000" font-size="104.33" font-family="sans-serif">User Input</text><text x="173.12" y="838.03" fill="#000000" font-size="75.8" font-family="sans-serif">Boundary Enforcement(memory-safe text,user-visible repair)</text><text x="696.56" y="879.93" fill="#000000" font-size="66.02" font-family="sans-serif">SocialManager(event-based relationupdate, fulfillment-awarereliability)</text><text x="1767.64" y="905.23" fill="#000000" font-size="75.1" font-family="sans-serif">Generation Stack(prompt reconstruction,model eval gate, fast/slowrouting, structured output)</text><text x="2366.16" y="1068.7" fill="#000000" font-size="109.87" font-family="sans-serif">Canonical State DB (SQLite)(active claims, open loops,interaction policy, relation state,encrypted boundary payload)</text><text x="1784.68" y="1092.11" fill="#000000" font-size="95.26" font-family="sans-serif">Memory Graph DB(Entity-Claim-Note-Episodesnapshot + delta, publicboundary projection)</text><text x="2344" y="466.7" fill="#000000" font-size="109.87" font-family="sans-serif">QueryPlanner(referent cache &amp; role alias)</text><text x="2346.64" y="617.12" fill="#000000" font-size="109.37" font-family="sans-serif">LTM Handler(claim-aware search,ACL, context bundle)</text><text x="154.68" y="470.98" fill="#000000" font-size="104.83" font-family="sans-serif">Sensory System(Delta ingest, durable cursor,chunking &amp; embedding)</text><text x="696.56" y="466.7" fill="#000000" font-size="109.87" font-family="sans-serif">Identity &amp; Fast Path(nickname mapping,FastPathMemoryWriter)</text><text x="1800.56" y="466.7" fill="#000000" font-size="109.87" font-family="sans-serif">Working Memory (STM)(priority queue &amp; semantic boost)</text><text x="1248.56" y="842.7" fill="#000000" font-size="109.87" font-family="sans-serif">Reflection Handler(claims/notes extraction,background consolidation)</text><text x="160.08" y="364.68" fill="#000000" font-size="92.23" font-family="sans-serif">1. PERCEIVE (인지 단계)</text><text x="160.08" y="675.71" fill="#000000" font-size="123.98" font-family="sans-serif">4. ACT (행동 및 반영 단계)</text><text x="1805.96" y="694.59" fill="#000000" font-size="140.62" font-family="sans-serif">3. THINK (사고 및 생성 단계)</text><text x="1805.96" y="364.35" fill="#000000" font-size="180.94" font-family="sans-serif">2. RETRIEVE (기억 인출 단계)</text></svg>