<?xml version='1.0' encoding='utf-8'?>
<svg xmlns="http://www.w3.org/2000/svg" width="2760" height="1504" viewBox="0 0 2760 1504" version="1.1"><defs><marker id="arrow-tip" markerWidth="10" markerHeight="7" refX="9" refY="3.5" orient="auto" markerUnits="strokeWidth"><polygon points="0 0, 10 3.5, 0 7" fill="#000000" /></marker><marker id="arrow-tail" markerWidth="10" markerHeight="7" refX="1" refY="3.5" orient="auto" markerUnits="strokeWidth"><polygon points="10 0, 0 3.5, 10 7" fill="#000000" /></marker></defs><rect x="0" y="0" width="2760" height="1504" fill="#ffffff" /><rect x="467" y="53" width="339" height="65" fill="none" stroke="#eaedf2" stroke-width="2" /><rect x="332" y="352" width="254" height="133" fill="none" stroke="#97b2cf" stroke-width="3.99" /><rect x="278" y="890" width="308" height="121" fill="none" stroke="#c1e3cc" stroke-width="3.63" /><rect x="1224" y="256" width="171" height="240" fill="none" stroke="#d3e2f6" stroke-width="5.13" /><rect x="2337" y="47" width="279" height="207" fill="none" stroke="#c29e9d" stroke-width="6.21" /><rect x="414" y="150.4" width="414" height="150.4" fill="none" stroke="#484a4f" stroke-width="4.51" /><rect x="2336" y="944" width="352" height="218" fill="none" stroke="#e9c956" stroke-width="6.54" rx="26.16" ry="26.16" /><rect x="1749" y="984" width="421" height="189" fill="none" stroke="#9d73af" stroke-width="5.67" rx="22.68" ry="22.68" /><rect x="2312" y="342" width="375" height="218" fill="none" stroke="#d8ab85" stroke-width="6.54" /><rect x="2312" y="493" width="408" height="217" fill="none" stroke="#cb9263" stroke-width="6.51" /><rect x="656" y="805" width="482" height="206" fill="none" stroke="#a7b3aa" stroke-width="6.18" /><rect x="1208" y="794" width="482" height="217" fill="none" stroke="#b4b5c4" stroke-width="6.51" /><rect x="656" y="267" width="482" height="218" fill="none" stroke="#c6d8ee" stroke-width="6.54" /><rect x="1760" y="342" width="482" height="218" fill="none" stroke="#f9d7b5" stroke-width="6.54" /><rect x="1727" y="820" width="483" height="224" fill="none" stroke="#8b62a1" stroke-width="6.72" /><rect x="82" y="610" width="951" height="171" fill="none" stroke="#868ea6" stroke-width="5.13" /><rect x="1727" y="610" width="962" height="205" fill="none" stroke="#e2cdb0" stroke-width="6.15" /><rect x="1727" y="159" width="962" height="284" fill="none" stroke="#d5bfad" stroke-width="8.52" /><polyline points="2499.5,560 2499.5,526.5 2516,526.5 2516,462.48 2516,493" fill="none" stroke="#cb9263" stroke-width="6.54" stroke-linecap="round" stroke-linejoin="round" marker-end="url(#arrow-tip)" /><polyline points="621,300.8 621,321.86 634.94,321.86 634.94,376 656,376" fill="none" stroke="#484a4f" stroke-width="6.54" stroke-linecap="round" stroke-linejoin="round" marker-end="url(#arrow-tip)" /><polyline points="2208,443 2208,482.76 2281.76,482.76 2281.76,451 2242,451" fill="none" stroke="#d5bfad" stroke-width="8.52" stroke-linecap="round" stroke-linejoin="round" marker-end="url(#arrow-tip)" /><polyline points="2208,815 2208,843.7 2238.7,843.7 2238.7,932 2210,932" fill="none" stroke="#8b62a1" stroke-width="6.72" stroke-linecap="round" stroke-linejoin="round" marker-end="url(#arrow-tip)" /><polyline points="621,300.8 621,321.86 607.06,321.86 607.06,418.5 586,418.5" fill="none" stroke="#484a4f" stroke-width="4.51" stroke-linecap="round" stroke-linejoin="round" marker-end="url(#arrow-tip)" /><polyline points="2208,443 2208,482.76 2272.24,482.76 2272.24,451 2312,451" fill="none" stroke="#d8ab85" stroke-width="8.52" stroke-linecap="round" stroke-linejoin="round" marker-end="url(#arrow-tip)" /><polyline points="2170,1078.5 2253,1078.5 2253,1053 2309.54,1053 2336,1053" fill="none" stroke="#9d73af" stroke-width="6.54" stroke-linecap="round" stroke-linejoin="round" marker-end="url(#arrow-tip)" /><polyline points="557.5,781 557.5,804.94 632.06,804.94 632.06,908 656,908" fill="none" stroke="#868ea6" stroke-width="6.18" stroke-linecap="round" stroke-linejoin="round" marker-end="url(#arrow-tip)" /><polyline points="1033,695.5 1120.5,695.5 1120.5,902.5 1184.06,902.5 1208,902.5" fill="none" stroke="#868ea6" stroke-width="6.51" stroke-linecap="round" stroke-linejoin="round" marker-end="url(#arrow-tip)" /><polyline points="1309.5,256 1309.5,232.06 829.94,232.06 829.94,85.5 806,85.5" fill="none" stroke="#d3e2f6" stroke-width="5.13" stroke-linecap="round" stroke-linejoin="round" marker-end="url(#arrow-tip)" /><polyline points="1309.5,496 1309.5,519.94 1703.06,519.94 1703.06,712.5 1727,712.5" fill="none" stroke="#e2cdb0" stroke-width="6.15" stroke-linecap="round" stroke-linejoin="round" marker-end="url(#arrow-tip)" /><polyline points="2337,150.5 1309.5,150.5 1309.5,227.02 1309.5,256" fill="none" stroke="#c29e9d" stroke-width="6.21" stroke-linecap="round" stroke-linejoin="round" marker-end="url(#arrow-tip)" /><text x="496.12" y="90.18" fill="#000000" font-size="32.76" font-family="sans-serif">1. PERCEIVE (인지 단계)</text><text x="354.32" y="428.08" fill="#000000" font-size="67.03" font-family="sans-serif">Sensory System(Delta ingest, durable cursor,chunking &amp; embedding)</text><text x="304.64" y="959.21" fill="#000000" font-size="60.98" font-family="sans-serif">Boundary Enforcement(memory-safe text,user-visible repair)</text><text x="1239.68" y="393.28" fill="#000000" font-size="120.96" font-family="sans-serif">Bot Orchestrator(Main Loop Controller)</text><text x="2361.32" y="165.4" fill="#000000" font-size="104.33" font-family="sans-serif">User Input</text><text x="449.12" y="236.43" fill="#000000" font-size="75.8" font-family="sans-serif">Boundary Redaction(Clause-level, target-aware)</text><text x="2366.16" y="1068.7" fill="#000000" font-size="109.87" font-family="sans-serif">Canonical State DB (SQLite)(active claims, open loops,interaction policy, relation state,encrypted boundary payload)</text><text x="1784.68" y="1092.11" fill="#000000" font-size="95.26" font-family="sans-serif">Memory Graph DB(Entity-Claim-Note-Episode)(snapshot + delta, publicboundary projection)</text><text x="2344" y="466.7" fill="#000000" font-size="109.87" font-family="sans-serif">QueryPlanner(referent cache &amp; role alias)</text><text x="2346.64" y="617.12" fill="#000000" font-size="109.37" font-family="sans-serif">LTM Handler(claim-aware search,ACL, context bundle)</text><text x="696.56" y="922.83" fill="#000000" font-size="103.82" font-family="sans-serif">SocialManager(event-based relationupdate, fulfillment-awarereliability)</text><text x="1248.56" y="918.12" fill="#000000" font-size="109.37" font-family="sans-serif">Reflection Handler(claims/l / notes/l extraction,background consolidation)</text><text x="696.56" y="391.7" fill="#000000" font-size="109.87" font-family="sans-serif">Identity &amp; Fast Path(nickname mapping,FastPathMemoryWriter)</text><text x="1800.56" y="466.7" fill="#000000" font-size="109.87" font-family="sans-serif">Working Memory (STM)(priority queue &amp; semantic boost)</text><text x="1767.64" y="948.13" fill="#000000" font-size="112.9" font-family="sans-serif">Generation Stack(prompt reconstruction,model eval gate, fast/slowrouting, structured output)</text><text x="160.08" y="707.81" fill="#000000" font-size="86.18" font-family="sans-serif">4. ACT (행동 및 반영 단계)</text><text x="1805.96" y="727.26" fill="#000000" font-size="103.32" font-family="sans-serif">3. THINK (사고 및 생성 단계)</text><text x="1805.96" y="321.45" fill="#000000" font-size="143.14" font-family="sans-serif">2. RETRIEVE (기억 인출 단계)</text></svg>