<?xml version='1.0' encoding='utf-8'?>
<svg xmlns="http://www.w3.org/2000/svg" width="2760" height="1504" viewBox="0 0 2760 1504" version="1.1"><defs><marker id="arrow-tip" markerWidth="10" markerHeight="7" refX="9" refY="3.5" orient="auto" markerUnits="strokeWidth"><polygon points="0 0, 10 3.5, 0 7" fill="#000000" /></marker><marker id="arrow-tail" markerWidth="10" markerHeight="7" refX="1" refY="3.5" orient="auto" markerUnits="strokeWidth"><polygon points="10 0, 0 3.5, 10 7" fill="#000000" /></marker></defs><rect x="0" y="0" width="2760" height="1504" fill="#ffffff" /><rect x="2421" y="400" width="180" height="135" fill="none" stroke="#fcfcfb" stroke-width="4.05" /><rect x="414" y="225.6" width="414" height="75.2" fill="none" stroke="#53565d" stroke-width="2.26" /><rect x="1196" y="228" width="227" height="284" fill="#edf1f9" stroke="#d7d8d1" stroke-width="6.81" /><rect x="2306" y="986" width="412" height="196" fill="none" stroke="#ab9430" stroke-width="5.88" rx="23.52" ry="23.52" /><rect x="246" y="891" width="368" height="223" fill="none" stroke="#71a381" stroke-width="6.69" /><rect x="1870" y="991" width="339" height="248" fill="none" stroke="#b595c4" stroke-width="7.44" rx="29.76" ry="29.76" /><rect x="2309" y="19" width="335" height="263" fill="none" stroke="#f1d9be" stroke-width="7.89" /><rect x="2306" y="893" width="412" height="260" fill="none" stroke="#a88f2d" stroke-width="7.8" /><rect x="896" y="894" width="476" height="228" fill="none" stroke="#c9e6d2" stroke-width="6.84" /><rect x="2279" y="535" width="441" height="279" fill="none" stroke="#f0dab9" stroke-width="8.37" /><rect x="116" y="353" width="508" height="245" fill="none" stroke="#9fb7d0" stroke-width="7.35" /><rect x="1862" y="382" width="514" height="289" fill="none" stroke="#f5cdb1" stroke-width="8.67" rx="34.68" ry="34.68" /><rect x="358" y="804" width="725" height="215" fill="none" stroke="#c4e4ce" stroke-width="6.45" /><rect x="479" y="830" width="560" height="295" fill="none" stroke="#c4e4ce" stroke-width="8.85" /><rect x="617" y="303" width="560" height="296" fill="none" stroke="#818c9b" stroke-width="8.88" /><rect x="1797" y="617" width="923" height="198" fill="none" stroke="#d6b29a" stroke-width="5.94" /><rect x="81" y="260" width="1023" height="184" fill="none" stroke="#6088b2" stroke-width="5.52" /><rect x="1796" y="165" width="924" height="422" fill="none" stroke="#d2a684" stroke-width="12.66" /><polyline points="720.5,804 720.5,786.9 759,786.9 759,799.9 759,830" fill="none" stroke="#c4e4ce" stroke-width="8.85" stroke-linecap="round" stroke-linejoin="round" marker-end="url(#arrow-tip)" /><polyline points="592.5,260 592.5,280.4 621,280.4 621,326.56 621,300.8" fill="none" stroke="#53565d" stroke-width="5.52" stroke-linecap="round" stroke-linejoin="round" marker-end="url(#arrow-tip)" /><polyline points="1423,370 1609.5,370 1609.5,376 1764.22,376 1796,376" fill="none" stroke="#d2a684" stroke-width="12.66" stroke-linecap="round" stroke-linejoin="round" marker-end="url(#arrow-tip)" /><polyline points="1083,911.5 1113.1,911.5 1113.1,863.9 1134,863.9 1134,894" fill="none" stroke="#c4e4ce" stroke-width="6.84" stroke-linecap="round" stroke-linejoin="round" marker-end="url(#arrow-tip)" /><polyline points="828,263.2 897,263.2 897,285 897,303" fill="none" stroke="#53565d" stroke-width="8.88" stroke-linecap="round" stroke-linejoin="round" marker-end="url(#arrow-tip)" /><polyline points="2209,1115 2257.5,1115 2257.5,1084 2271.28,1084 2306,1084" fill="none" stroke="#ab9430" stroke-width="7.44" stroke-linecap="round" stroke-linejoin="round" marker-end="url(#arrow-tip)" /><polyline points="414,263.2 370,263.2 370,335 370,353" fill="none" stroke="#53565d" stroke-width="7.35" stroke-linecap="round" stroke-linejoin="round" marker-end="url(#arrow-tip)" /><polyline points="358,911.5 327.9,911.5 327.9,860.9 430,860.9 430,891" fill="none" stroke="#71a381" stroke-width="6.69" stroke-linecap="round" stroke-linejoin="round" marker-end="url(#arrow-tip)" /><polyline points="2258.5,815 2258.5,842.72 2278.28,842.72 2278.28,1023 2306,1023" fill="none" stroke="#a88f2d" stroke-width="7.8" stroke-linecap="round" stroke-linejoin="round" marker-end="url(#arrow-tip)" /><polyline points="2720,376 2719.58,376 2719.58,467.5 2660.08,467.5 2601,467.5" fill="none" stroke="#d2a684" stroke-width="12.66" stroke-linecap="round" stroke-linejoin="round" marker-end="url(#arrow-tip)" /><polyline points="2258,587 2258,646.08 2435.08,646.08 2435.08,526.5 2376,526.5" fill="none" stroke="#d2a684" stroke-width="12.66" stroke-linecap="round" stroke-linejoin="round" marker-end="url(#arrow-tip)" /><polyline points="2309,150.5 1309.5,150.5 1309.5,191.18 1309.5,228" fill="none" stroke="#d7d8d1" stroke-width="7.89" stroke-linecap="round" stroke-linejoin="round" marker-end="url(#arrow-tip)" /><polyline points="1309.5,512 1309.5,543.78 1114.78,543.78 1114.78,911.5 1083,911.5" fill="none" stroke="#c4e4ce" stroke-width="6.81" stroke-linecap="round" stroke-linejoin="round" marker-end="url(#arrow-tip)" /><polyline points="1309.5,512 1309.5,543.78 1765.22,543.78 1765.22,716 1797,716" fill="none" stroke="#d6b29a" stroke-width="6.81" stroke-linecap="round" stroke-linejoin="round" marker-end="url(#arrow-tip)" /><text x="2437.4" y="477.22" fill="#000000" font-size="68.04" font-family="sans-serif">QueryPlanner(referent cache &amp; role alias)</text><text x="449.12" y="268.61" fill="#000000" font-size="37.9" font-family="sans-serif">Boundary Redaction(Clause-level, target-aware)</text><text x="1216.16" y="390.45" fill="#000000" font-size="143.14" font-family="sans-serif">Bot Orchestrator(Main Loop Controller)</text><text x="2340.96" y="1098.11" fill="#000000" font-size="98.78" font-family="sans-serif">Canonical State DB (SQLite)(active claims, open loops,interaction policy, relation state,encrypted boundary payload)</text><text x="277.44" y="1018.56" fill="#000000" font-size="112.39" font-family="sans-serif">Boundary Enforcement(memory-safe text,user-visible repair)</text><text x="1899.12" y="1132.86" fill="#000000" font-size="124.99" font-family="sans-serif">Memory Graph DB(Entity-Claim-Note-Episodesnapshot + delta, publicboundary projection)</text><text x="2337.8" y="169.44" fill="#000000" font-size="132.55" font-family="sans-serif">User Input</text><text x="2340.96" y="1041.72" fill="#000000" font-size="131.04" font-family="sans-serif">Generation Stack(prompt reconstruction,model eval gate, fast/slowrouting, structured output)</text><text x="936.08" y="1024.42" fill="#000000" font-size="114.91" font-family="sans-serif">Reflection Handler(claims/notes extraction,background consolidation)</text><text x="2316.28" y="694.59" fill="#000000" font-size="140.62" font-family="sans-serif">LTM Handler(claim-aware search,ACL, context bundle)</text><text x="158.64" y="493.14" fill="#000000" font-size="123.48" font-family="sans-serif">Sensory System(Delta ingest, durable cursor,chunking &amp; embedding)</text><text x="1905.12" y="547.31" fill="#000000" font-size="145.66" font-family="sans-serif">Working Memory (STM)(priority queue &amp; semantic boost)</text><text x="418" y="926.98" fill="#000000" font-size="108.36" font-family="sans-serif">4. ACT (행동 및 반영 단계)</text><text x="525.8" y="998.74" fill="#000000" font-size="148.68" font-family="sans-serif">SocialManager(event-based relationupdate, fulfillment-awarereliability)</text><text x="663.8" y="472.31" fill="#000000" font-size="149.18" font-family="sans-serif">Identity &amp; Fast Path(nickname mapping,FastPathMemoryWriter)</text><text x="1872.84" y="730.26" fill="#000000" font-size="99.79" font-family="sans-serif">3. THINK (사고 및 생성 단계)</text><text x="164.84" y="365.25" fill="#000000" font-size="92.74" font-family="sans-serif">1. PERCEIVE (인지 단계)</text><text x="1871.92" y="406.38" fill="#000000" font-size="212.69" font-family="sans-serif">2. RETRIEVE (기억 인출 단계)</text></svg>